<mxfile host="app.diagrams.net" modified="2023-10-11T17:05:06.018Z" agent="Mozilla/5.0 (Macintosh; Intel Mac OS X 10_15_7) AppleWebKit/537.36 (KHTML, like Gecko) Chrome/117.0.0.0 Safari/537.36" version="21.8.1" etag="Nmk9O6YnqVBrgtgcT9Ru" type="github">
  <diagram name="Page-1" id="JeWXZjhZPfO-Zlyuugq4">
    <mxGraphModel>
      <root>
        <mxCell id="0" />
        <mxCell id="1" parent="0" />
      </root>
    </mxGraphModel>
  </diagram>
</mxfile>
